<?xml version="1.0" encoding="UTF-8"?>
<svg enable-background="new 0 0 2267.7 425.2" version="1.1" viewBox="0 0 2267.7 425.2" xml:space="preserve" xmlns="http://www.w3.org/2000/svg">
	<path d="m465.6 280.7c-0.8-0.3-1.6-0.4-2.4-0.5-3.5-0.4-6.8-1.5-9.9-3.1-17-9-19.5-30.8-24.4-47.5-0.3-0.9-0.1-2.4 0.4-2.9 5.6-4.6 10.8-12.5 13.7-18.9 3.3-7.1 5.7-14.7 5.5-22.6-0.4-13.3-8.2-42.7-26.7-39.9-3.8 0.6-7 3.5-9 6.6-8.1 12.5-8.9 29.4-7.3 43.6 0.7 6.9 3.6 27.1 3.6 27.1-4.6 2.4-8.8-2.7-11.5-5.7s-5-6.3-7-9.9c-1.7-3-3.4-6.2-6.5-8-6-3.3-12.7-3.3-18.1 1-2.3 1.9-4.3 4.2-5.9 6.7-1.2 1.9-3.4 5.3-3.4 7.6 0 0 0.1-25 0.1-35.3 0-14.9-0.2-47.6-0.5-62.4-0.1-3.4 0.9-5 4.5-5.6 1.4-0.2 12-2.9 9.8-5.8-1-1.2-3.6-2.3-5-2.4-4.8-0.5-9.6 1.3-13.2-2.8-3.8-4.3-12.9-4.5-15.9 0.4-1.9 3.1-4 3.4-6.7 3.7-23.8 2.8-48.4 5.9-71.5 12.3-5.4 1.5-14.8 3.5-18.1 8.5-3.8 5.6 19.9 2.3 21.8 1.9 10.6-1.9 29.7-4.8 29.7-4.8-0.2 14.9-1.7 135.2-1.2 146.3 0.1 3 2.5 18 8.6 15.4 7.4-3.1 6.6-14.5 6.9-20.9 0.5-9.7 0.9-19.3 1.5-29 1.6-24.3 3.2-48.7 4.8-73 0.9-14.3 1.9-28.6 2.9-42.9 0 0 13.3-2.8 17.6-3.8 3.8-0.9 4.3 0.7 4.2 3.7-1 22.8-0.8 105.1-0.6 112.5 0.2 5.6 3.3 11 7.6 12.1 7.1 1.8 14.4-1 17.1-6.1 3.8-7.1 8.1-14 12.9-22.3 1 1.9 1.4 2.5 1.7 3.1 3.6 5.8 7.8 10.9 13.9 14.2 10.9 5.8 22.4 3.8 22.4 3.8 2.7 13.6 6.3 27.6 8.3 32.6 5.7 14.5 22 23 37.6 22.3 4.5-0.2 7.7-2.5 9.2-6.7 0.3-1.2-0.3-2.1-1.5-2.6zm-39.6-122.4c3.1 0.5 9.9 37.9-0.6 54-3.3-15.6-3.3-54.3 0.6-54z"/>
	<path d="m2026.3 221.9c-2.6-6.8-5.2-13.5-7.4-20.4-3.8-11.8-6.1-24.6-4.5-37 0.6-4.7 2-9.6 4.7-13.6 2.3-3.4 6.3-6.1 3.5-10.5-3.3-5.1-13.9-4.1-18.7-1.3-9 5.4-19.3 13.7-27.9 19.8 0 0 1-9.9 0.7-13.5-0.7-6.9-7.7-13.5-16.4-12.4-9.3 1.2-16.9 5.7-25.1 9.1-7.6 3.1-16 7.8-24.8 11.9 0 0 2.4-20.1 4.4-27.2 1.2 4.6 5.7 5 7.3 3.2 0.6-0.6 0.9-1.4 1.1-2.1 2.4-8.2 0-21.4-9.3-24.4-6.8-2.2-12.7 4.4-13.5 10.6-0.4 2.9-7.2 47.7-7.2 47.7-3.8 1.9-22.9 11-21.8 18.3 0.4 2.8 1.3 5.5 4.6 3.8 2.1-1 14.4-5.7 14.4-5.7s-3 34.9-3.3 48.9c-0.7 29-3.3 58-3.3 87-0.1 6.8 7.9 11.4 13.3 6 3.6-3.5 4.8-12 4.8-16.5 0.1-6.6 0.3-13.2 0.5-19.8 0.4-12.6 1.1-25.3 1.7-37.9 1.1-23.7 4.9-74.6 4.9-74.6l48.4-23.4-0.5 19.9s-26 14.7-27.8 18.7c-1.1 2.4 0.4 7.6 3.7 7.4 1.1-0.1 2-0.6 2.9-1.2 3.3-2 18-10 18-10-0.6 5.9-5.2 96.4-4.5 103.7 0.4 3.6-0.3 16.5 4.4 17.5 9.5 1.9 11.9-9.1 12.1-16 0.5-18.4 8-112.6 8-112.6 7.5-4.5 17.3-10.3 25.7-14.7-4.3 13.2 1.2 34.2 8.3 53.6 2.1 5.8 6.4 15.3 3.4 21.3-3 6.1-13.1 2-18.2 4-5.3 2.1 3 5.8 5 6.7 3.8 1.8 7.8 3.3 11.8 4.3 7.5 1.8 16.8 1.8 20-5.7 0.4-0.9 0.7-1.8 0.8-2.9 1.2-7-1.8-13.6-4.2-20z"/>
	<path d="m837.8 267.6c-3.2 0.6-5.9 1.2-9.1 0.1-6.9-2.4-9.9-10.3-12.3-16.6-2.7-7.2-4.3-14.7-6-22.1-0.7-3.3-0.8-6.5 2.6-8.2 3.3-1.7 6.4-3.1 9.4-5.4 5.9-4.7 10.7-11.3 11.4-19 0.9-10.2-0.4-20.9-3.9-30.3-2.1-5.6-8.2-13.6-15.6-11.8-8.9 2.1-15.4 10.4-18.3 18.7-3.3 9.4-5.5 35.3-5.5 35.3-6.4-3.7-9-9.9-11-16.5-2.9-9.5-7.1-12.2-16.2-8.7-2.7 1-7 1.4-7.4 6.2-0.8 9.7-4.4 18.3-12.2 25.8-0.9-2.1-1.6-3.6-2.3-5.2-3.9-9.2-3.2-18.8-2.8-28.4 0.5-9.9-5.4-14.5-14.4-11.2-2.9 1-6.8 3-7.6 5.4-2.8 8.9-11.6 38.3-11.6 38.3s-3.3-16.9-4.3-25.2c-1.3-10.5-6.9-20.2-16.6-25-8.7-4.4-19.6 0.7-26.1 6.9-5.6 5.3-8.6 12.7-11.2 19.8-3.6 9.9-6.6 21.2-12.9 29.9-3.7 5.1-9.3 9.3-14.7 12.3-5 2.7-13.3 6.2-18.4 2.1-4.1-3.3-5.1-9.4-5.6-14.4-0.8-6.8-0.5-13.7-0.6-20.5-0.2-11.9-2.2-31.4-18.8-27.5-17.2 4.1-25.8 23.4-33.6 55.8-0.9-7.4-1.8-79.5-2.9-102.1-0.3-6.3-0.4-13.1-2.3-19.2-1.4-4.4-4.2-9.7-9.3-10-6.6-0.4-7.2 3.5-8 8.7-1.1 6.7 2 61.8 2.4 75.8 0.8 24.3 0.5 49 2.8 73.2 0.3 3 1.1 6.2 3.7 8 4.3 3 17.8 3.5 19.7-2.6 2.9-9.1 6.1-18.2 9.6-27.1 3.8-9.9 15.2-39.3 15.6-39.1 0 8.2-0.3 16.5 0.1 24.7 0.5 9.6 3.4 18.6 11.1 24.7 11.5 9.1 29.3 9.2 41.4 0.8 5.4-3.8 16.6-14.5 16.6-14.5-2.1 4.6-2.1 9.9-2 14.8 0.2 5.8 0.7 11.6 1.7 17.3 0.6 3.3 1.5 6.6 3.3 9.5 4.9 7.9 15.1 11.1 24 10.1 3.8-0.4 7.2-2 9.6-5.1 2.3-3 3.5-6.7 4.2-10.3 0.5-2.7 0.7-5.4 0.7-8.1-0.3-12.1-7.5-22.4-15.1-31.3-1.6-1.8-8.1-7.1-10.2-8.6 4.8-27.3 14.5-39.2 14.5-39.2 2.4 11 10.5 62.2 18.8 64 3.8 0.8 7.9 0.3 11.8-0.1 1.2-0.1 2.7-1.5 3.3-2.7 1.9-3.6 3.3-7.5 5.2-11.2 2.8-5.5 5.8-10.8 9.3-17.2 2.7 9.9 8.9 14.5 16.6 16.6 15.7 4.3 24-4.9 29.3-18.6 2.4 1.6 4.2 2.7 5.9 4 7.9 6 17.9 9.9 17.9 9.9s4.6 24.9 8.1 33c3.8 8.9 9.2 18.1 19 21 7.7 2.3 18.5 0.6 22.6-7.3 1-2.1-1.5-2.8-3.4-2.4zm-178.2-34.7c3.4 8.9 6.7 17.9 7 27.6 0.1 2.3 0 4.6-0.7 6.8-0.4 1.2-1.7 3.4-3.1 2.3-0.1-0.1-0.3-0.2-0.4-0.4-1.7-2.2-2.3-5.3-2.9-8-0.7-3-1.2-6-1.5-9-0.6-5.9-0.5-11.9-0.3-17.8 0-1.2 0-2.3 0.1-3.5 0-0.6 0.3-1.5 0.1-2.1 0.6 1.4 1.2 2.8 1.7 4.1zm149-26.8c-0.9-10.9 0.5-21.1 3.8-32.4 6.3 14.2 4.7 27.6-3.8 32.4z"/>
	<path d="m1669.2 219.9c-0.7-0.3-1.5-0.5-2.2-0.8-2.4-1-4-3.2-5-5.6-1.1-2.9-1.2-6-1.9-9-0.8-3.2-1.5-6.4-2.7-9.5-1.4-3.7-4.5-6.3-8.5-6.6-5-0.4-9.9 1.6-13.4 5.2-4.7 4.9-9.7 9.6-15.1 13.7-2 1.5-2.6 1.5-3-1-0.9-4.7-1-24.7-1.3-29.9-0.3-6.2-2.2-11.8-8.1-13.2-6.7-1.6-14.7 1.5-21.1 3.3 3.2-18.2 6.2-35.5 10.2-53.4 1.4-6.2 2.1-12.4 7.9-16.1 4.4-2.8 6.3-2.9 11-4.5 2.2-0.8 3.6-2.4 1.7-4.5-4.1-4.9-13.4-5.5-19.1-4.6-12.5 1.8-14.4 14.4-14.4 14.4s-19.8 12.3-26.8 16c-3.1 1.6-6.3 3.3-9.9 5.3 0-6 0.8-12 1.2-17.9 0.3-4.2 0.7-8.5 1-12.7 0.2-2.9 1-6.5 0.6-9.4-0.4-3.6-5.2-2.8-7.5-1.9-4.7 1.8-5.2 4.7-6 9.3-2.4 14.1-6.9 42.6-6.9 42.6s-32.6 23.2-29.4 27.3c2.9 3.4 22.1-8.1 28.4-14-3.6 32.2-7.1 61.3-10.6 91.9 0 0-8.3-1.7-10.3-2.8-5.4-2.8-4.7-11.1-7.1-16-1.9-3.9-5.1-7.2-9.3-8.5-5.9-1.7-11.9-1-17.3 4.2-4.9 4.7-18 16.8-18 16.8s13.7-98.1 15.5-110.2c1.6-10.6-12.7-23.5-18.3-9.7-2.6 6.4-2.6 13.5-3.6 20.3-1.6 11.4-3.1 22.9-4.5 34.4-1.8 14.7-6.8 53.5-7.9 64-0.8 11.6 3.4 16.8 14 19.6 5.3 1.4 10.2-1 14.8-5.6 9.9-9.9 16.4-18 16.4-18 3.6 8.4 7.8 15.2 14.8 19.1 7 3.8 14.6 3.7 21.8-0.3 0 0 5.6 43.1 13.3 38.4 0.4-0.2 0.7-0.5 1-0.8 2.2-2.1 2.7-29.7 3.4-40.3 0.7-11 1.5-22 2.3-33 1.1-14.9 2.2-29.8 3.3-44.8 0.7-8.9 1.3-17.8 2.2-26.7 0 0 29-19.9 36.4-23.5 0 0-7.2 42.5-10.6 60.4 0 0-17.6 10.9-21.1 14.6-4.1 4.2-3.3 4.5 1.7 7.2 3 1.6 13.7-4.6 18.3-7.5 0 0-12.5 96.4-12.3 100.8s2.5 8.9 7.6 7.3c2.3-0.7 4.8-1.6 6.8-3 2.9-2 2.3-6.6 2.5-9.7 0.3-3.9 8.4-73.8 10.1-99.7l12.1-6.3c0.7 9.9 0.7 19.8 1.3 29.7 0.3 4.7 1.4 10.2 5.5 13.1 4.1 3 9.2 4.5 14.3 4.4 6.2-0.1 10.2-3.3 14.2-7.7 2.4-2.6 4.9-5.1 7.7-8.1-0.5 0.5 3.8 8 4.3 8.9 1.5 2.7 3.2 5.2 5.3 7.5 4.1 4.2 10.3 7.7 16.2 4.8 1.9-0.9 6.5-3.3 5.4-6 0.2-0.8-0.5-1.3-1.3-1.7z"/>
	<path d="m1009.2 167.4c-11.7 1.8-19.4 3.9-31 6.1 0 0 3.3-64.6 7.9-64.3 5.6 0.3 11-6.1 8.4-11.3-4.6-9.5-17.6-8.7-22.2 0.3-5.8 11.2-5.9 26.6-7.3 38.9-1.5 13.6-2.4 27.3-3.3 41-6.1 3.3-15.2 6.3-21 9.1-5.2-12.8-7.5-18.6-13.9-24.8 0 0.1 0.2-0.3 0.4-0.8 1.1-2.1 3.4-4.4 0.9-6.2-6.3-4.6-30.2 0.7-32 3.5-1.7 2.6 4.3 7.2 5.8 8.9 2.4 2.8 3.9 6.2 2.9 10.1-0.7 3-1.6 6-2.5 8.9-3.6 11.5-6.9 25.4-6.1 37.6 0.7 9.7 5 23.2 13.4 29.1 10.6 7.5 24.2 2.8 31.5-6.9 13.6-18 3.7-48.6 4.1-48.7 3.3-1.2 8.7-2.9 13.5-4.6-0.4 0.1 0.3 7.9 0.3 8.4 0.4 12.9 0.8 25.8 1.1 38.7 0.2 7.4 0.3 14.7 0.4 22.1 0.1 6.4 0 12.9 1.3 19.2 0.9 4.2 2.6 13.8 7.9 14.5 4.2 0.6 5.9-2.1 7.2-5.5 0.8-2 1.1-4.1 1-6-0.5-10.5-1.1-30-1.1-53.5-0.1-26.5-0.2-44-0.2-44s31.9-10.6 35.6-12.8c3.4-2.1 0.5-7.6-3-7zm-76.7 48.5c-0.6 7.6-2.9 29.4-11 29-9.3 0.6-8.8-39.8-2.7-73.5 0.5 0 6.3 11.5 9.3 23.8-1 0.7-2.8 1.8-4.5 3.2-2.3 1.9-1.7 4.6 1.1 5.6 7.1 2.7 8.3 4.3 7.8 11.9z"/>
	<path d="m1437 243.2c-3.2-20.2-6.5-40.4-10.3-60.5-1-4.9-8.3-7.1-12.6-7.5-4.7-0.5-8.2 1.8-9.6 6.4 0 0.1-4.6 0.2-5.1 0.2-2.9 0.4-5.8 1.2-8.5 2.6-11.6 5.8-17 19.1-19.6 31.1-1.1 4.7-2.6 11.4-3 17.9-0.4 6 0.2 12 3 16.3-21.2 1.6-27-26.3-30.6-42.1-2.5-11.1-8.9-13.8-19.1-8.9-4.5 2.2-4.5 3.7-7.2 7.9-8.3 13.5-10.5 18.3-20.5 31.8-5 6.8-12.4 15.7-14.8 10.7-1.6-3.3 3.5-45.1 3.9-54.8 0.5-9.5-2.3-19-13.2-19.8-8.5-0.6-16.6 1.8-24.5 4.7-14.4 5.3-38.4 13-37.1 32.7 0.1 1.1 0.3 2.2 0.7 3.2 1.8 5 6.1 6.4 10.2 9.1 4.8 3.2 8.5 7.3 9.8 13 0.3 1.1-16.5 7.7-18.2 8.3-6.4 2.2-14.5 3.4-19.2-2.7-2.9-3.8-4.2-8.7-4.6-13.4-0.8-9.4 1.3-19.7-3.9-28-10.2-16.2-30 11.1-38.3 43.6 0 0 4.4-73.7 6.3-85.7 1-6.2 2.3-12.4 3.9-18.4 1.1-4.3 2.6-10.2-1.4-13.6-3.2-2.7-8.2-3.9-12.1-2.9-5.8 1.5-26.7 9.6-31.4 11.5 0.3-5.6 0.6-11.2 0.8-16.9 0.2-5.5 2.6-18.5-6.7-16.8-9.6 1.7-11.2 14.7-11.9 22.1-0.6 6-1.2 12-1.9 17.9 0 0-32.6 20.1-30.5 25.2 1.6 4 19.1-2.8 30.2-8.9 0 0-2.3 75-1.7 107.6 0.2 11.1 0.1 22.4 2.1 33.3 1 5.6 8.7-3.7 9.3-5.1 3-6.3 3.2-12.8 3.4-19.8 1-29.1 2.9-57.9 4.8-87 0.9-12.7 1.7-25.5 2.6-38.2 6.5-3.6 13.3-6.6 20.5-10.1v0.5c-1.3 19.1-2.8 38.2-4.3 57.3-0.8 10.2-1.4 20.5-2.3 30.7-0.6 7.7-1.6 15.9 0.8 23.4 2 6.3 8.1 11.3 14.4 13 7.5 2 13.1-1.2 16.5-8 1.7-3.5 11.3-20.8 11.3-20.8 13.2 26.7 34.4 26.3 57.6 17.1 0 0-6.2 24.7 3.2 38.9 3.2 4.9 8.4 8.6 14.2 9.8 9 1.9 20.1-2.5 22.2-12.3 1.5-6.9-2.7-17.5-5.8-23.3-3.7-7-7.1-14.1-10.9-21-2-3.8-1.1-5.6 0.5-9.1 2.2-5.1 4-10.3 5.4-15.6 1-3.9 3.8-11.1 1.7-14.9-2.5-4.5-13.7-0.3-16.8 1.7-3.2 2.1-3.4 5.1-3.6 8.7-0.1 2-0.3 4.2-1.2 6 0.3-0.5-7-6.1-7.7-6.8-2.4-2.4-4.9-5.5-4.2-9.2 0.7-4 4.8-7 7.8-9.4 9.2-7.4 20.6-11 32.1-12.9-0.3 12-1.3 23.9-1.6 35.9-0.2 9.7-0.4 19.8 1.7 29.3 0.7 3.1 1.6 6.8 4.2 9 9.8 8.3 21.7 5.5 30.6-2.5 5.3-4.7 9.8-10.6 14.2-16.2 2.3-2.9 12.7-16.8 12.7-16.8 4.9 14.1 12 25.8 20.9 31.2 8.1 4.9 20.4 7.7 28.6 1.6 0.5-0.4 0.9-0.9 1.3-1.4 14.1 10.3 28.2-9.8 33.2-20.7 1.3-2.8 2.2-5.7 3.3-8.5 0.8-2 2.2-7.2 2.2-7.2s19.6 79.3 10.5 112.3c-2.9 10.5-8.5 20.2-17.9 26-7.8 4.8-15.5 2.3-24 1-3.6-0.6-12.5-1.4-11.2 4.9 1.8 8.9 22.2 8.1 28.7 7.5 13.1-1.2 29.2-7.9 36.5-18.9 9.6-14.6 10.1-35.9 9-52.8-0.9-17.7-5-35.7-7.8-53.5zm-200.2 13.4c0.4-2 1-3.9 1.9-5.7 4.9 6.1 8.1 14.1 10.2 21.5 1 3.7 2 7.6 1.7 11.4-0.2 3.3-3.1 9.3-7.2 6.4-2.2-1.6-3.4-5.3-4.2-7.7-2.8-8-4.1-17.4-2.4-25.9zm166.4-54.9c-2.6 7.7-14.9 41.4-17.9 40.1-3.8-0.8 6.8-38.8 8-42.5 1-3 2.8-9.2 6.8-7.7 3.7 1.4 4.1 6.9 3.1 10.1z"/>
	<path d="m1823.8 169.9c-4.9-1.1-10.4 0.5-14.2 3.3-1.5 1.1-2.9 3.2-4.5 3.4s-3.1 0.4-4.7 0.7c-11 2.2-18.1 9.3-23.6 18-2.6 4.1-4.8 8.6-6.9 13.1-3.9 8.3-13.2 29.2 1.3 32.9 6.6 1.7 13.7 1.8 19.1-2.7 5.9-5 11-11 15.9-17 3.5-4.2 10-13.7 10.5-13.6 0.4 0.1 2.1 53.6 2 67.9-0.2 17-1.7 35.9-10.7 50.8-8 13.3-24.6 24.2-39.6 15.2-1.8-1.1-15.1-11.7-15.4-7.3-0.4 5.8 8.4 13.2 12.2 16.4 6.7 5.6 13.2 7.2 21.9 6.3 16-1.6 31.3-11.8 38.3-26.4 7.2-15.1 7.7-32.4 8.7-48.8 1.4-22.1-0.5-85.6-1.3-95.2-0.6-6.1-1.4-15.3-9-17zm-45.5 60.4c-3.2-2.6 20.7-48.5 29.1-43.7 8.1 4.7-24.7 46.3-29.1 43.7z"/>
	<path d="m1695.6 94.9c-3.9-1.1-7.7 0.5-8.9 4.4-0.8 2.7-0.4 5.4-0.5 8.2-0.1 3-0.3 6-0.5 9-0.4 6.1-0.9 12.3-1.5 18.4-1.2 11.8-2.6 23.8-3.6 35.5-1.2 13.6-2.1 27.3-2.5 41-0.3 9-0.5 17.7 1.1 26.6 1.4 7.7 3.8 15.2 7.2 22.2 1.7 3.5 6.2 5.6 9.8 3.6 5.6-3.2 3.7-12.2 3.4-17.5l-0.3-4.8c-0.4-6.9-0.7-13.8-0.9-20.7 0-1.4 0-2.8-0.1-4.2-0.2-18.7 1.1-37.4 2.3-56 0.6-8.6 1.1-17.2 1.5-25.9 0.5-10.4 2.6-22.6-0.5-32.8-0.7-3-2.7-6.1-6-7z"/>
	<path d="m1854.4 179.2c-4 1.2-5.7 5.4-6.6 9.1-2.1 8.6-1.3 46.9-0.6 56.9 0.3 3.4 1.9 6.2 5.5 5.6 4.5-0.6 8.7 0.6 10-5 2-8.9 14.3-73.6-8.3-66.6z"/>
	<path d="m1855.3 142.8c4.7-0.2 12.6-6.9 5.8-10.4-0.7-0.4-1.5-0.6-2.2-0.6-3.5-0.4-11.5 3-10.2 7.7 0.7 2.6 4.3 3.4 6.6 3.3z"/>
</svg>
